<svg xmlns="http://www.w3.org/2000/svg" viewBox="0 0 360 260" role="img" aria-labelledby="title desc">
  <title>No996 Xianxia Codex logo</title>
  <desc>A jade cloud, golden core, and ink ring for a xianxia encyclopedia.</desc>
  <rect width="360" height="260" rx="28" fill="#f7f3eb"/>
  <path d="M78 156c43 24 128 19 180-22 17-13 26-29 24-47 32 25 29 70-2 102-48 50-159 55-218 13-31-23-26-61 16-46z" fill="#2d8c6f" opacity=".92"/>
  <path d="M95 119c42-63 126-83 190-34-66-10-115 10-151 55 31 18 82 18 128 0-38 51-117 67-173 32-23-15-21-32 6-53z" fill="#3aa985" opacity=".72"/>
  <circle cx="183" cy="130" r="47" fill="none" stroke="#1a1d1b" stroke-width="8"/>
  <path d="M183 76c24 14 24 39 0 54s-24 40 0 54" fill="none" stroke="#c9a84c" stroke-width="9" stroke-linecap="round"/>
  <text x="180" y="225" text-anchor="middle" font-family="Inter, Arial, sans-serif" font-size="28" font-weight="800" fill="#1a1d1b">Xianxia Codex</text>
</svg>

